<?xml version="1.0" encoding="utf-8"?>
<!-- Generator: Adobe Illustrator 20.1.0, SVG Export Plug-In . SVG Version: 6.00 Build 0)  -->
<svg version="1.1" id="Layer_1" xmlns="http://www.w3.org/2000/svg" xmlns:xlink="http://www.w3.org/1999/xlink" x="0px" y="0px"
	 viewBox="0 0 1920 1080" style="enable-background:new 0 0 1920 1080;" xml:space="preserve">
<style type="text/css">
	.st0{fill:#FFFFFF;}
	.st1{fill:none;stroke:url(#SVGID_1_);stroke-width:5;stroke-miterlimit:10;}
	.st2{fill:none;}
</style>
<g>
	<g>
		<path class="st0" d="M799.2,336.9c0-15.7,20.1-25.9,36.4-32v-0.3c-19.2-1.1-34.1-12.6-34.1-25.9c0-16,17.8-26.8,34.1-30.8v-0.3
			c-15.5-5.5-27.1-17.8-27.1-35.7c0-23.7,23.8-43.1,52.7-43.1c13.4,0,25.6,4.1,34.6,10l38.2-6.7l-2.9,14.8l-29-4.1l-0.3,0.8
			c7.5,6.4,12.2,16,12.2,26.3c0,23.3-23,41.6-53.5,41.6c-7.3,0-15.2-1.1-19.7-2c-10.1,2-16.8,7.5-16.8,14.8
			c0,7.8,8.2,10.8,24.1,10.8c8.2,0,26.8-0.8,37.2-0.8c27.4,0,43.4,12.9,43.4,34.4c0,32.3-32,57.3-77.6,57.3
			C816.4,365.8,799.2,356.2,799.2,336.9z M908.6,327.3c0-16-11.6-23-38.7-23.8c-7.5-0.3-20.4,0.7-30,1.8c-10.4,4.1-16,14-16,25.3
			c0,17.5,17.1,30,42.2,30C891.5,360.6,908.6,345.7,908.6,327.3z M882.5,211.8c0-24.1-5.5-40.1-21.5-40.1
			c-12.9,0-19.7,13.1-19.7,38.2c0,25.6,7.3,39,20.4,39C874.8,248.8,882.5,235.9,882.5,211.8z"/>
		<path class="st0" d="M948.9,295.3l4.4-0.3c9-0.7,12.2-1.1,12.2-4.7v-81.6c0-18.1-2-20.7-11.9-23l-6.7-1.5l0.3-1.1l51.2-14v121.7
			c0,2.3,1.8,2.9,14.8,4.1l3.3,0.3l0.8,1.8h-69.3L948.9,295.3z M959.3,129.1c0-9.3,7-20.1,20.7-20.1c13.7,0,20.7,10.8,20.7,20.1
			c0,9.3-7,20.1-20.7,20.1C966.4,149.2,959.3,138.4,959.3,129.1z"/>
		<path class="st0" d="M1048.1,191.4c-5.9-13.4-7.3-15.7-16.6-16.6l-4.7-0.3l-0.8-1.8h73.4l-0.7,1.8l-4.9,0.3
			c-11.6,0.8-14.2,4.1-10.1,13.7l30,72.4l18.9-49.3c11.6-30,7.8-34.6-11.1-37l-4.1-0.3l-0.8-1.8h51.2l-0.8,1.8l-4.1,0.7
			c-13.7,1.8-14.5,5.2-27.6,38.7l-33.4,86.1h-7.3L1048.1,191.4z"/>
		<path class="st0" d="M1174.7,237.4c0-39,28.9-69.3,67.2-69.3c33.4,0,49.8,20.4,49.8,41.1c0,1.8-0.3,3.3-0.7,4.9
			c0,0-72.4-0.7-80.6-0.8c-0.7,3.8-0.7,10.1-0.7,14c0,32.3,18.1,53.8,44.2,53.8c16.6,0,28.5-6,37.5-22.7l2,0.8
			c-12.6,26.8-30.8,42.2-58.6,42.2C1200.3,301.5,1174.7,273.5,1174.7,237.4z M1259.3,210c0-18.1-4.7-38.5-20.7-38.5
			c-13.1,0-24.8,16.3-27.6,38.7L1259.3,210z"/>
	</g>
	
		<linearGradient id="SVGID_1_" gradientUnits="userSpaceOnUse" x1="1148.5048" y1="811.6173" x2="1897.7693" y2="811.6173" gradientTransform="matrix(1.6937 -0.3826 0.3826 -1.211 -1930.262 2144.4446)">
		<stop  offset="0" style="stop-color:#FFFFFF;stop-opacity:0"/>
		<stop  offset="0.1985" style="stop-color:#FFFFFF"/>
		<stop  offset="0.7516" style="stop-color:#FFFFFF"/>
		<stop  offset="0.9621" style="stop-color:#FFFFFF;stop-opacity:0"/>
	</linearGradient>
	<line class="st1" x1="248.8" y1="971" x2="1671.2" y2="186.7"/>
	<path class="st2" d="M1123,334.8c-77.8,0-131.6,101.5-135.7,229L1235,427.1C1212.5,368.2,1174.7,334.8,1123,334.8z"/>
	<polygon class="st0" points="532.3,363.8 529.3,371.2 627.2,382.6 627.2,762.7 749.6,695.1 749.6,331.7 	"/>
	<path class="st0" d="M645.2,801.7c0,12.4-14.8,14.5-48.1,15.5L570,818l-3.3,5.9h283.5l-3.1-5.9l-22.7-0.8
		c-42.6-2.1-56.9-5.1-56.9-13.4V682.2l-122.3,67.5L645.2,801.7L645.2,801.7z"/>
	<path class="st0" d="M1123,334.8c51.7,0,89.4,33.4,112.1,92.3l69.2-38.2c-46.5-40.5-108.5-63.5-177.2-63.5
		c-147.5,0-270,108-270,263.8c0,15.3,1.1,30.2,3.3,44.5l126.9-70C991.5,436.3,1045.3,334.8,1123,334.8z"/>
	<path class="st0" d="M1322.3,375.9l-69.2,38.2c16.5,42.9,25,99.3,25,166.4c0,137-55,246.2-137,246.2c-90.4,0-136-94.4-136-259.7
		c0-5.4,0.2-10.8,0.3-16.1l-126.9,70C898,753.2,1004.9,836.9,1138,836.9c148.4,0,270-107,270-263.8
		C1407.9,490.2,1375,421.9,1322.3,375.9z"/>
</g>
</svg>
