<?xml version="1.0" encoding="utf-8"?>
<!-- Generator: Adobe Illustrator 20.1.0, SVG Export Plug-In . SVG Version: 6.00 Build 0)  -->
<svg version="1.1" id="Layer_1" xmlns="http://www.w3.org/2000/svg" xmlns:xlink="http://www.w3.org/1999/xlink" x="0px" y="0px"
	 viewBox="0 0 1920 1080" style="enable-background:new 0 0 1920 1080;" xml:space="preserve">
<style type="text/css">
	.st0{fill:#FFFFFF;}
	.st1{fill:none;stroke:url(#SVGID_1_);stroke-width:5;stroke-miterlimit:10;}
	.st2{fill:none;}
</style>
<g>
	<g>
		<path class="st0" d="M861.4,414.5c0-9.6,12.3-15.9,22.3-19.6v-0.2c-11.8-0.7-20.9-7.7-20.9-15.9c0-9.8,10.9-16.4,20.9-18.9v-0.2
			c-9.5-3.4-16.6-10.9-16.6-21.9c0-14.5,14.6-26.4,32.3-26.4c8.2,0,15.7,2.5,21.2,6.1l23.4-4.1l-1.8,9.1l-17.8-2.5l-0.2,0.5
			c4.6,3.9,7.5,9.8,7.5,16.1c0,14.3-14.1,25.5-32.8,25.5c-4.5,0-9.3-0.7-12.1-1.2c-6.2,1.2-10.3,4.6-10.3,9.1c0,4.8,5,6.6,14.8,6.6
			c5,0,16.4-0.5,22.8-0.5c16.8,0,26.6,7.9,26.6,21.1c0,19.8-19.6,35.1-47.6,35.1C872,432.2,861.4,426.3,861.4,414.5z M928.5,408.6
			c0-9.8-7.1-14.1-23.7-14.6c-4.6-0.2-12.5,0.4-18.4,1.1c-6.4,2.5-9.8,8.6-9.8,15.5c0,10.7,10.5,18.4,25.9,18.4
			C918,429,928.5,419.9,928.5,408.6z M912.5,337.8c0-14.8-3.4-24.6-13.2-24.6c-7.9,0-12.1,8-12.1,23.4c0,15.7,4.5,23.9,12.5,23.9
			C907.8,360.5,912.5,352.6,912.5,337.8z"/>
		<path class="st0" d="M953.2,389l2.7-0.2c5.5-0.4,7.5-0.7,7.5-2.9v-50c0-11.1-1.2-12.7-7.3-14.1l-4.1-0.9l0.2-0.7l31.4-8.6v74.6
			c0,1.4,1.1,1.8,9.1,2.5l2,0.2l0.5,1.1h-42.5L953.2,389z M959.6,287.1c0-5.7,4.3-12.3,12.7-12.3c8.4,0,12.7,6.6,12.7,12.3
			c0,5.7-4.3,12.3-12.7,12.3C963.9,299.4,959.6,292.8,959.6,287.1z"/>
		<path class="st0" d="M1014,325.3c-3.6-8.2-4.5-9.6-10.2-10.2l-2.9-0.2l-0.5-1.1h45l-0.4,1.1l-3,0.2c-7.1,0.5-8.7,2.5-6.2,8.4
			l18.4,44.4l11.6-30.2c7.1-18.4,4.8-21.2-6.8-22.7l-2.5-0.2l-0.5-1.1h31.4l-0.5,1.1l-2.5,0.4c-8.4,1.1-8.9,3.2-16.9,23.7
			l-20.5,52.8h-4.5L1014,325.3z"/>
		<path class="st0" d="M1091.6,353.5c0-23.9,17.7-42.5,41.2-42.5c20.5,0,30.5,12.5,30.5,25.2c0,1.1-0.2,2-0.4,3
			c0,0-44.4-0.4-49.4-0.5c-0.4,2.3-0.4,6.2-0.4,8.6c0,19.8,11.1,33,27.1,33c10.2,0,17.5-3.7,23-13.9l1.2,0.5
			c-7.7,16.4-18.9,25.9-35.9,25.9C1107.3,392.8,1091.6,375.6,1091.6,353.5z M1143.5,336.7c0-11.1-2.9-23.6-12.7-23.6
			c-8,0-15.2,10-16.9,23.7L1143.5,336.7z"/>
	</g>
	
		<linearGradient id="SVGID_1_" gradientUnits="userSpaceOnUse" x1="1289.7576" y1="254.0427" x2="1749.9495" y2="254.0427" gradientTransform="matrix(1.6937 -0.3826 -0.3826 1.211 -1517.054 836.5647)">
		<stop  offset="0" style="stop-color:#FFFFFF;stop-opacity:0"/>
		<stop  offset="0.1985" style="stop-color:#FFFFFF"/>
		<stop  offset="0.7516" style="stop-color:#FFFFFF"/>
		<stop  offset="0.9621" style="stop-color:#FFFFFF;stop-opacity:0"/>
	</linearGradient>
	<line class="st1" x1="524" y1="803.2" x2="1396" y2="322.4"/>
	<path class="st2" d="M1059.9,413.2c-47.7,0-80.7,62.2-83.2,140.4l151.9-83.8C1114.8,433.7,1091.6,413.2,1059.9,413.2z"/>
	<polygon class="st0" points="697.8,431 696,435.5 756,442.5 756,675.5 831,634.1 831,411.3 	"/>
	<path class="st0" d="M767,699.4c0,7.6-9.1,8.9-29.5,9.5l-16.6,0.5l-2,3.6h173.8l-1.9-3.6l-13.9-0.5c-26.1-1.3-34.9-3.1-34.9-8.2
		v-74.5l-75,41.4V699.4z"/>
	<path class="st0" d="M1059.9,413.2c31.7,0,54.8,20.5,68.7,56.6l42.4-23.4c-28.5-24.8-66.5-38.9-108.6-38.9
		c-90.4,0-165.5,66.2-165.5,161.7c0,9.4,0.7,18.5,2,27.3l77.8-42.9C979.3,475.4,1012.3,413.2,1059.9,413.2z"/>
	<path class="st0" d="M1182.1,438.4l-42.4,23.4c10.1,26.3,15.3,60.9,15.3,102c0,84-33.7,150.9-84,150.9
		c-55.4,0-83.4-57.9-83.4-159.2c0-3.3,0.1-6.6,0.2-9.9l-77.8,42.9c12,81.2,77.5,132.5,159.1,132.5c91,0,165.5-65.6,165.5-161.7
		C1234.6,508.5,1214.4,466.6,1182.1,438.4z"/>
</g>
</svg>
